<svg preserveAspectRatio="none" overflow="visible" style="display: block;" width="18" height="18" viewBox="0 0 18 18" fill="none" xmlns="http://www.w3.org/2000/svg">
<g id="shapes">
<g id="Vector">
<path d="M5.94662 7.43781C6.03181 7.48383 6.12807 7.50539 6.22475 7.50012H11.7958C11.8915 7.49978 11.9854 7.47326 12.0672 7.42341C12.1489 7.37357 12.2155 7.3023 12.2597 7.21733C12.3039 7.13236 12.324 7.03692 12.3178 6.94135C12.3117 6.84578 12.2795 6.75371 12.2248 6.67512L9.44825 2.21787C9.39879 2.14215 9.33059 2.08049 9.25029 2.03887C9.16998 1.99726 9.08029 1.97709 8.9899 1.98034C8.89951 1.98358 8.81149 2.01012 8.73438 2.05739C8.65726 2.10466 8.59367 2.17104 8.54975 2.25012L5.75525 6.69087C5.70269 6.77218 5.67363 6.86645 5.67129 6.96325C5.66896 7.06005 5.69344 7.15561 5.74203 7.23936C5.79062 7.32311 5.86143 7.39179 5.94662 7.43781Z" stroke="#176D78" stroke-width="2" stroke-linecap="round"/>
<path d="M6.75 10.5003H3C2.58579 10.5003 2.25 10.8361 2.25 11.2503V15.0003C2.25 15.4145 2.58579 15.7503 3 15.7503H6.75C7.16421 15.7503 7.5 15.4145 7.5 15.0003V11.2503C7.5 10.8361 7.16421 10.5003 6.75 10.5003Z" stroke="#176D78" stroke-width="2" stroke-linecap="round"/>
<path d="M13.125 15.7503C14.5747 15.7503 15.75 14.575 15.75 13.1253C15.75 11.6755 14.5747 10.5003 13.125 10.5003C11.6753 10.5003 10.5 11.6755 10.5 13.1253C10.5 14.575 11.6753 15.7503 13.125 15.7503Z" stroke="#176D78" stroke-width="2" stroke-linecap="round"/>
</g>
</g>
</svg>
